<?xml version="1.0" standalone="no"?>
<!DOCTYPE svg PUBLIC "-//W3C//DTD SVG 20010904//EN"
 "http://www.w3.org/TR/2001/REC-SVG-20010904/DTD/svg10.dtd">
<svg version="1.0" xmlns="http://www.w3.org/2000/svg"
 width="2048.000000pt" height="2048.000000pt" viewBox="0 0 2048.000000 2048.000000"
 preserveAspectRatio="xMidYMid meet">
<metadata>
Created by potrace 1.14, written by Peter Selinger 2001-2017
</metadata>
<g transform="translate(0.000000,2048.000000) scale(0.100000,-0.100000)"
fill="#000000" stroke="none">
<path d="M8320 20015 c0 -6 -59 -10 -155 -11 -85 -1 -166 -5 -181 -8 -16 -4
-32 -2 -42 6 -13 11 -14 11 -8 0 6 -11 -2 -13 -38 -9 -25 2 -46 0 -46 -4 0 -5
-23 -7 -50 -5 -28 1 -53 -1 -55 -5 -8 -12 -76 -8 -68 5 3 6 -2 4 -13 -5 -11
-9 -35 -15 -56 -14 -21 1 -38 -2 -38 -6 0 -4 -15 -8 -32 -7 -18 0 -49 -2 -68
-5 -19 -4 -55 -9 -80 -12 -72 -10 -85 -12 -85 -15 0 -1 -11 -3 -25 -5 -60 -7
-109 -15 -160 -26 -30 -7 -69 -13 -87 -13 -17 -1 -30 -3 -28 -7 2 -3 -33 -13
-78 -23 -45 -10 -97 -22 -114 -27 -18 -6 -37 -8 -43 -4 -5 3 -10 2 -10 -3 0
-9 -70 -27 -97 -25 -7 0 -13 -4 -13 -9 0 -6 -7 -8 -15 -4 -8 3 -15 1 -15 -4 0
-5 -9 -7 -20 -5 -11 2 -20 0 -20 -5 0 -5 -9 -7 -20 -5 -11 2 -20 1 -20 -3 0
-7 -45 -21 -120 -38 -14 -3 -27 -9 -28 -15 -2 -5 -7 -7 -12 -4 -7 4 -251 -73
-295 -94 -18 -9 -63 -24 -75 -26 -3 0 -11 -4 -17 -8 -7 -5 -13 -5 -13 0 0 4
-4 3 -8 -4 -4 -6 -21 -14 -37 -17 -16 -3 -31 -10 -33 -15 -2 -6 -9 -8 -16 -5
-8 3 -20 -1 -27 -9 -8 -7 -20 -12 -27 -9 -6 2 -12 0 -12 -5 0 -6 -6 -10 -14
-10 -13 0 -136 -50 -231 -93 -22 -11 -55 -25 -72 -32 -18 -7 -33 -17 -33 -21
0 -5 -6 -7 -12 -4 -7 2 -25 -4 -39 -14 -14 -10 -29 -16 -33 -12 -3 3 -6 1 -6
-5 0 -7 -3 -11 -7 -10 -5 1 -53 -20 -108 -46 -55 -26 -115 -54 -132 -62 -18
-8 -33 -19 -33 -25 0 -5 -4 -7 -10 -4 -5 3 -10 1 -10 -5 0 -6 -4 -8 -10 -5 -5
3 -10 1 -10 -5 0 -6 -4 -8 -10 -5 -5 3 -10 1 -10 -5 0 -6 -4 -8 -10 -5 -5 3
-10 1 -10 -6 0 -7 -3 -10 -6 -6 -3 3 -23 -4 -43 -17 -20 -12 -79 -46 -131 -75
-115 -63 -133 -74 -141 -84 -3 -5 -9 -8 -13 -8 -17 2 -24 -1 -44 -19 -12 -12
-22 -18 -22 -15 0 7 -84 -48 -88 -57 -2 -5 -8 -8 -13 -8 -5 0 -28 -13 -50 -30
-23 -16 -45 -27 -50 -24 -5 3 -9 1 -9 -4 0 -5 -12 -15 -27 -23 -15 -8 -38 -24
-51 -36 -14 -13 -31 -23 -38 -23 -8 0 -14 -3 -14 -8 0 -4 -9 -12 -20 -17 -42
-22 -180 -119 -180 -127 0 -5 -5 -6 -10 -3 -6 3 -13 -1 -16 -9 -3 -9 -10 -14
-14 -11 -5 3 -16 -5 -24 -17 -9 -12 -16 -19 -16 -14 0 4 -19 -7 -42 -26 -24
-18 -47 -36 -53 -40 -5 -4 -24 -19 -41 -33 -18 -14 -36 -25 -41 -25 -4 0 -14
-9 -21 -21 -7 -12 -16 -19 -18 -16 -3 3 -19 -8 -37 -24 -17 -16 -37 -29 -44
-29 -7 0 -13 -4 -13 -8 0 -5 -33 -34 -72 -65 -40 -31 -78 -61 -85 -67 -7 -5
-57 -48 -112 -95 -56 -47 -106 -85 -113 -85 -6 0 -8 -3 -5 -6 4 -4 -10 -20
-31 -36 -102 -82 -532 -500 -702 -683 -91 -98 -202 -223 -236 -265 -16 -19
-37 -44 -47 -55 -10 -11 -53 -63 -95 -115 -42 -52 -86 -104 -97 -115 -11 -11
-21 -24 -22 -28 -2 -7 -51 -71 -78 -101 -6 -6 -22 -27 -35 -46 -30 -43 -40
-56 -63 -81 -9 -10 -14 -19 -10 -19 5 0 4 -4 -2 -8 -19 -13 -85 -100 -85 -111
0 -6 -4 -11 -10 -11 -5 0 -10 -7 -10 -15 0 -8 -4 -15 -9 -15 -10 0 -56 -69
-56 -83 0 -4 -5 -11 -11 -15 -7 -4 -53 -70 -104 -147 -51 -77 -97 -142 -101
-143 -5 -2 -7 -7 -4 -12 3 -4 -2 -13 -10 -20 -8 -7 -15 -19 -15 -26 0 -8 -4
-14 -8 -14 -5 0 -19 -20 -32 -45 -13 -25 -29 -50 -37 -56 -7 -6 -13 -16 -13
-21 0 -6 -9 -22 -20 -38 -11 -15 -17 -30 -13 -34 3 -3 1 -6 -5 -6 -7 0 -25
-27 -42 -60 -17 -33 -35 -60 -42 -60 -6 0 -9 -3 -5 -6 5 -6 -41 -98 -75 -146
-10 -14 -18 -31 -18 -36 0 -6 -6 -17 -13 -24 -7 -7 -26 -40 -43 -73 -16 -33
-60 -120 -97 -192 -37 -73 -66 -135 -65 -137 2 -2 -6 -13 -16 -25 -11 -12 -15
-21 -11 -21 4 0 0 -9 -10 -20 -10 -11 -15 -20 -12 -20 3 0 -5 -21 -18 -47 -13
-27 -42 -91 -65 -143 -23 -52 -46 -100 -52 -107 -5 -7 -7 -16 -4 -22 3 -5 2
-11 -4 -13 -8 -2 -42 -79 -54 -123 -2 -5 -11 -28 -21 -50 -10 -22 -20 -45 -21
-51 -1 -6 -9 -27 -18 -45 -24 -52 -96 -250 -96 -265 0 -8 -5 -14 -11 -14 -6 0
-9 -7 -6 -15 4 -8 2 -17 -4 -20 -5 -4 -7 -11 -4 -16 4 -5 1 -9 -4 -9 -6 0 -10
-3 -10 -7 1 -5 1 -10 -1 -13 -1 -3 -3 -16 -6 -29 -2 -14 -9 -30 -15 -38 -6 -7
-9 -13 -6 -13 4 0 -11 -51 -33 -112 -21 -62 -50 -151 -63 -198 -14 -47 -33
-112 -43 -145 -10 -33 -19 -67 -20 -75 -2 -8 -5 -26 -9 -40 -3 -14 -7 -30 -9
-37 -1 -7 -5 -15 -8 -19 -4 -3 -4 -12 -2 -19 3 -7 1 -16 -5 -19 -6 -4 -8 -13
-4 -21 3 -8 1 -15 -5 -15 -6 0 -8 -9 -5 -20 3 -11 1 -20 -5 -20 -6 0 -8 -9 -5
-20 3 -11 1 -20 -3 -20 -5 0 -10 -10 -11 -23 0 -12 -20 -105 -43 -206 -22
-101 -39 -186 -36 -189 3 -3 1 -10 -4 -17 -5 -6 -11 -33 -12 -58 -2 -26 -5
-47 -9 -47 -3 0 -6 -10 -7 -22 -3 -38 -10 -93 -12 -93 -1 0 -3 -11 -5 -25 -2
-14 -6 -43 -10 -65 -6 -37 -9 -61 -19 -140 -2 -16 -5 -30 -6 -30 -2 0 -4 -23
-10 -110 -2 -22 -6 -44 -9 -50 -3 -5 -4 -26 -2 -47 1 -21 -1 -38 -6 -38 -4 0
-8 -21 -9 -48 0 -26 -4 -85 -7 -132 -4 -47 -13 -148 -19 -225 -8 -102 -12
-1676 -14 -5747 l-3 -5608 10239 0 10240 0 0 4439 c0 2949 -3 4442 -10 4446
-5 3 -10 2 -10 -3 0 -5 -6 -9 -14 -9 -36 0 -373 -144 -636 -271 -74 -36 -138
-65 -142 -64 -5 1 -8 -2 -8 -7 0 -5 -21 -19 -47 -31 -65 -30 -297 -163 -301
-172 -2 -5 -8 -8 -13 -8 -5 0 -71 -39 -147 -86 -75 -48 -147 -92 -159 -98 -13
-6 -23 -14 -23 -18 0 -5 -7 -8 -15 -8 -8 0 -15 -4 -15 -10 0 -5 -6 -10 -13
-10 -7 0 -24 -11 -39 -25 -15 -14 -32 -25 -38 -25 -5 0 -10 -4 -10 -10 0 -5
-6 -10 -13 -10 -7 0 -23 -9 -35 -20 -12 -11 -26 -20 -32 -20 -5 0 -10 -4 -10
-8 0 -5 -16 -17 -35 -28 -19 -10 -35 -22 -35 -26 0 -5 -5 -8 -11 -8 -6 0 -17
-6 -24 -13 -35 -31 -195 -148 -195 -143 0 3 -10 -5 -23 -17 -13 -12 -47 -40
-76 -62 -108 -81 -195 -151 -222 -176 -16 -15 -30 -25 -32 -22 -3 2 -13 -7
-23 -20 -11 -13 -22 -23 -25 -23 -6 1 -96 -73 -131 -107 -10 -9 -20 -17 -23
-17 -3 0 -19 -12 -34 -27 -16 -16 -46 -42 -67 -60 -103 -85 -148 -124 -226
-195 -35 -32 -67 -58 -71 -58 -4 0 -24 -17 -42 -37 -19 -21 -35 -35 -35 -32 0
4 -19 -11 -42 -33 -125 -118 -281 -251 -378 -324 -119 -90 -240 -174 -250
-174 -5 0 -10 -4 -10 -10 0 -5 -16 -17 -35 -26 -19 -9 -35 -20 -35 -24 0 -4
-11 -12 -25 -18 -14 -7 -31 -17 -38 -22 -17 -15 -154 -102 -222 -142 -31 -18
-78 -46 -103 -61 -26 -15 -54 -31 -62 -34 -8 -4 -17 -9 -20 -12 -7 -9 -92 -54
-200 -108 -52 -27 -96 -51 -98 -55 -2 -5 -7 -8 -12 -8 -4 0 -59 -24 -121 -53
-171 -80 -186 -87 -198 -87 -6 0 -11 -4 -11 -10 0 -5 -3 -9 -7 -8 -5 1 -90
-30 -190 -70 -100 -40 -188 -72 -196 -72 -7 0 -17 -4 -23 -9 -11 -10 -126 -47
-136 -43 -5 1 -8 -3 -8 -10 0 -6 -3 -9 -6 -6 -5 5 -60 -9 -114 -29 -8 -3 -19
-7 -25 -8 -5 -2 -53 -15 -105 -30 -108 -30 -273 -73 -310 -81 -14 -2 -36 -7
-50 -10 -14 -3 -35 -7 -47 -9 -11 -1 -30 -6 -41 -9 -23 -8 -50 -14 -102 -22
-47 -8 -65 -12 -65 -14 0 -3 -72 -15 -145 -25 -30 -4 -57 -8 -60 -10 -3 -2
-33 -6 -65 -10 -33 -3 -67 -8 -75 -10 -15 -4 -209 -29 -310 -40 -30 -3 -71 -8
-90 -10 -19 -3 -69 -7 -110 -10 -41 -3 -93 -7 -115 -10 -22 -2 -86 -5 -142 -7
-57 -2 -103 -7 -103 -12 0 -5 -6 -3 -13 3 -8 6 -17 8 -21 4 -7 -8 -75 -11
-328 -17 -103 -3 -191 -6 -195 -8 -14 -7 -625 -1 -748 6 -144 10 -190 14 -190
16 0 1 -18 3 -40 5 -50 4 -119 12 -167 19 -21 3 -53 8 -70 11 -18 2 -43 7 -54
9 -12 2 -39 7 -60 10 -67 11 -228 46 -330 72 -55 14 -110 28 -124 30 -13 3
-29 9 -35 13 -5 5 -18 7 -27 6 -10 -2 -20 1 -24 6 -3 5 -15 9 -28 9 -12 0 -26
3 -30 7 -3 4 -12 8 -19 9 -26 4 -278 93 -377 134 -115 46 -139 56 -250 108
-163 75 -185 86 -192 97 -4 5 -8 7 -8 3 0 -4 -28 9 -62 29 -35 19 -72 39 -83
44 -11 5 -29 15 -40 21 -47 31 -100 62 -105 63 -6 1 -52 29 -92 56 -15 11 -32
19 -38 19 -5 0 -10 5 -10 11 0 5 -4 7 -10 4 -5 -3 -10 -1 -10 5 0 6 -12 16
-27 23 -16 6 -33 16 -39 22 -12 10 -174 122 -203 140 -9 6 -20 16 -24 23 -4 6
-14 12 -22 12 -7 0 -15 3 -17 8 -2 6 -59 51 -103 84 -5 4 -29 23 -51 42 -23
20 -44 36 -47 36 -3 0 -17 10 -30 22 -12 13 -43 40 -67 62 -126 109 -204 183
-325 306 -181 184 -213 219 -207 225 3 3 1 5 -5 5 -5 0 -33 28 -61 63 -28 34
-63 76 -77 92 -57 65 -65 75 -65 80 0 3 -9 16 -21 28 -11 12 -35 42 -52 67
-17 25 -33 47 -36 50 -12 10 -108 147 -165 235 -33 50 -71 108 -86 131 -61 92
-203 349 -278 504 -80 167 -122 257 -122 264 0 2 -10 25 -22 52 -12 27 -23 51
-23 54 -1 3 -9 22 -18 44 -9 21 -14 42 -11 47 3 5 1 9 -4 9 -5 0 -12 10 -15
23 -3 12 -22 69 -42 127 -42 119 -92 280 -101 319 -9 44 -9 46 -17 58 -5 7
-10 28 -11 47 -2 19 -7 39 -11 46 -7 11 -9 19 -21 90 -3 19 -8 42 -11 50 -3 8
-7 26 -9 40 -2 14 -6 36 -10 50 -4 14 -8 39 -9 57 -2 17 -5 35 -8 40 -3 5 -9
32 -12 59 -3 27 -10 72 -15 99 -5 28 -11 70 -14 95 -3 25 -8 67 -12 94 -7 53
-9 80 -20 246 -14 199 -7 701 11 813 2 12 6 49 10 82 15 149 18 166 31 235 3
19 7 49 8 65 1 17 5 35 9 41 4 7 9 34 11 60 2 27 7 56 10 64 3 8 8 26 10 40 3
14 8 36 11 50 4 14 8 36 9 50 2 14 6 32 10 40 5 14 35 129 40 160 2 8 6 22 9
30 3 8 15 47 26 85 11 39 39 124 61 190 23 66 42 125 44 130 14 46 136 335
187 440 29 61 52 113 51 118 -1 4 2 7 8 7 5 0 10 5 10 11 0 6 22 50 48 98 27
47 64 113 82 146 18 33 41 71 50 85 50 75 90 141 90 150 0 5 3 10 8 10 4 0 21
23 37 50 17 27 33 50 38 50 4 0 7 5 7 11 0 6 6 16 13 24 6 7 34 45 62 84 27
39 53 71 57 71 4 0 8 7 8 15 0 32 8 26 153 -107 29 -27 55 -48 58 -48 3 0 19
-11 35 -25 16 -14 33 -25 37 -25 4 0 17 -8 28 -18 18 -17 197 -126 209 -128
13 -1 86 -40 92 -49 4 -5 8 -7 8 -2 0 4 14 0 31 -9 78 -40 399 -132 419 -119
5 3 12 0 15 -5 4 -6 17 -10 28 -9 12 0 24 0 27 -1 22 -10 430 -21 430 -11 0 3
21 6 48 7 26 0 65 4 87 8 22 3 54 8 70 11 54 8 284 74 315 90 16 9 30 13 30
10 0 -3 10 1 23 10 13 8 27 12 30 8 4 -3 7 -1 7 5 0 7 3 11 8 11 15 -3 72 23
72 34 0 6 3 8 6 4 6 -6 121 52 154 77 8 7 27 18 43 26 15 7 27 17 27 22 0 4 7
8 15 8 9 0 18 7 21 15 4 8 12 15 20 15 8 0 14 5 14 12 0 6 3 9 6 5 4 -3 19 6
34 21 16 15 43 38 61 52 18 14 74 66 125 117 l92 92 89 -87 c49 -48 113 -107
143 -132 29 -25 59 -51 67 -58 7 -7 13 -11 13 -7 0 4 7 -1 17 -10 34 -34 253
-166 264 -159 5 3 9 1 9 -5 0 -6 23 -18 50 -28 28 -10 50 -21 50 -26 0 -4 5
-5 10 -2 6 3 10 2 10 -4 0 -6 6 -8 14 -5 7 3 20 -1 27 -8 8 -7 21 -15 29 -17
8 -2 60 -17 115 -33 176 -51 167 -49 290 -67 93 -13 99 -14 280 -13 192 0 255
3 255 11 0 3 15 7 33 8 81 4 168 23 311 70 61 20 113 38 116 38 3 1 23 10 45
20 22 10 43 18 48 17 4 -1 7 2 7 8 0 6 3 9 8 8 11 -2 45 13 64 29 9 8 22 15
30 17 15 2 40 17 166 100 50 33 92 64 92 68 0 5 5 8 11 8 6 0 16 6 24 13 7 6
34 30 60 52 72 61 225 216 225 229 0 5 29 42 56 70 5 6 19 26 29 44 18 30 35
42 35 25 0 -5 14 -24 30 -43 16 -19 30 -39 30 -44 0 -4 11 -17 25 -28 14 -11
25 -24 25 -29 0 -13 206 -219 219 -219 7 0 9 -4 6 -10 -3 -5 -2 -10 3 -10 4 0
17 -8 28 -17 38 -35 133 -103 144 -103 5 0 10 -4 10 -10 0 -5 6 -10 14 -10 8
0 16 -4 18 -8 4 -9 105 -72 116 -72 4 0 14 -6 21 -12 6 -7 15 -13 19 -13 4 0
36 -14 72 -32 117 -56 379 -140 461 -147 20 -2 41 -6 47 -10 5 -3 39 -7 75
-10 36 -2 69 -6 73 -8 22 -12 463 4 485 18 4 2 22 6 42 9 38 6 43 -1 54 -85
12 -87 68 -219 136 -320 42 -63 194 -210 216 -210 5 0 11 -4 13 -8 4 -11 127
-72 144 -72 8 0 14 -4 14 -8 0 -5 6 -9 13 -9 6 0 37 -7 67 -16 152 -44 307
-38 490 18 3 1 18 7 33 13 16 7 33 12 38 12 5 0 9 5 9 11 0 5 4 8 8 5 22 -13
234 156 287 229 11 16 26 34 33 41 6 7 12 17 12 22 0 5 7 15 15 22 9 7 13 15
10 18 -3 3 1 12 8 21 24 29 67 145 83 226 15 76 20 231 9 285 -3 14 -8 41 -11
60 -23 127 -139 334 -234 416 -14 12 -36 32 -50 44 -14 12 -53 40 -87 62 l-61
40 38 60 c22 33 45 73 52 89 7 16 17 29 21 29 5 0 6 4 2 9 -3 5 1 15 8 23 14
14 16 17 24 48 3 11 9 20 14 20 5 0 8 3 7 8 -1 4 4 18 9 32 43 101 79 201 88
250 2 8 4 16 5 18 2 1 4 7 5 12 1 6 4 12 5 15 4 7 5 15 14 65 5 25 10 54 13
65 7 30 14 86 17 120 1 17 4 35 7 40 9 18 -1 462 -11 473 -1 1 -4 16 -5 32 -1
17 -4 31 -5 33 -1 1 -4 11 -5 22 -4 31 -22 110 -25 110 -1 0 -4 12 -6 28 -5
29 -62 196 -88 259 -9 21 -16 41 -15 44 0 4 -3 10 -8 13 -4 3 -20 31 -35 61
-48 98 -161 278 -187 300 -3 3 -19 23 -35 45 -43 58 -266 277 -323 316 -26 18
-57 41 -68 51 -11 11 -30 21 -42 24 -13 4 -23 10 -23 14 0 20 -264 154 -395
200 -33 12 -67 24 -75 27 -8 3 -23 8 -32 9 -10 2 -50 13 -90 23 -40 11 -90 22
-112 25 -21 4 -41 8 -45 10 -28 17 -390 26 -521 12 -93 -9 -125 -14 -125 -16
0 -1 -9 -3 -19 -5 -11 -2 -30 -6 -43 -10 -15 -3 -23 -1 -23 7 0 10 -2 10 -9 0
-8 -13 -10 -11 -77 71 -8 10 -12 23 -8 29 4 7 3 8 -4 4 -6 -4 -19 6 -29 21
-10 15 -23 32 -30 36 -8 5 -11 12 -8 18 4 5 1 9 -4 9 -6 0 -11 7 -11 16 0 8
-4 13 -9 10 -9 -6 -26 22 -23 37 1 4 -4 7 -12 7 -16 0 -29 27 -19 42 3 6 1 8
-5 5 -16 -10 -115 100 -105 116 3 6 2 7 -4 4 -5 -3 -17 3 -26 14 -9 10 -14 19
-11 19 4 0 -5 9 -20 21 -14 11 -24 25 -21 30 4 5 -1 9 -10 9 -12 0 -13 4 -6
18 9 17 11 24 11 43 0 5 4 8 9 4 6 -3 6 6 1 24 -4 16 -6 32 -3 34 2 3 6 13 8
24 2 10 4 20 5 23 1 3 1 18 0 34 -1 21 2 26 12 20 10 -6 10 -4 -1 9 -11 14
-11 20 0 34 12 14 12 16 0 8 -11 -6 -13 -1 -9 24 3 18 1 34 -3 37 -5 2 -4 16
1 30 7 18 6 26 -4 30 -8 3 -14 15 -14 27 0 33 -8 69 -22 102 -7 17 -14 32 -15
35 -10 39 -73 157 -100 186 -38 43 -80 99 -78 106 2 4 0 7 -5 6 -4 -2 -38 22
-77 53 -68 54 -206 129 -239 129 -9 0 -16 4 -16 8 0 5 -6 9 -12 9 -20 1 -67
11 -75 16 -5 3 -28 6 -53 8 -25 1 -49 5 -54 7 -18 10 -187 -1 -229 -14 -10 -3
-25 0 -33 7 -12 9 -13 9 -9 -2 7 -18 -71 -43 -79 -25 -2 6 -5 3 -5 -8 -1 -12
-6 -16 -16 -12 -8 3 -15 1 -15 -4 0 -6 -5 -10 -11 -10 -5 0 -8 4 -5 9 4 5 -3
7 -14 4 -12 -3 -20 0 -20 6 0 7 -5 9 -12 5 -10 -6 -10 -5 0 8 10 13 9 15 -15
10 -20 -4 -25 -2 -21 10 4 8 1 15 -6 15 -12 0 -91 49 -114 70 -6 6 -21 15 -32
18 -11 3 -20 11 -20 16 0 5 -7 9 -15 9 -9 0 -18 7 -21 15 -4 8 -10 12 -15 9
-5 -3 -9 0 -9 6 0 6 -4 8 -10 5 -5 -3 -10 -1 -10 4 0 6 -7 11 -15 11 -9 0 -18
7 -21 15 -4 8 -10 13 -14 10 -5 -3 -15 1 -22 9 -8 7 -33 23 -55 35 -23 11 -45
25 -48 31 -4 6 -11 8 -16 5 -5 -4 -9 -1 -9 5 0 6 -4 9 -9 5 -5 -3 -12 3 -16
14 -4 12 -13 18 -25 16 -10 -2 -26 5 -35 16 -10 10 -21 16 -25 14 -4 -3 -19 6
-34 20 -15 13 -27 24 -29 23 -3 -2 -87 39 -134 66 -24 13 -43 22 -43 19 0 -4
-8 1 -17 9 -20 17 -54 32 -65 30 -5 -1 -8 2 -8 7 0 5 -13 12 -30 16 -16 4 -30
11 -30 16 0 5 -6 9 -14 9 -8 0 -21 9 -29 21 -8 11 -17 15 -19 9 -3 -11 -110
35 -116 51 -2 5 -7 7 -12 4 -5 -3 -14 1 -22 8 -7 8 -22 13 -31 11 -12 -1 -17
2 -14 11 4 9 -1 11 -15 7 -14 -3 -19 -1 -14 6 4 8 2 10 -8 6 -8 -3 -29 3 -48
12 -18 10 -36 17 -40 16 -5 -1 -8 3 -8 9 0 5 -4 8 -9 4 -5 -3 -12 -1 -16 5 -4
6 -11 8 -16 5 -5 -4 -9 -2 -9 2 0 5 -8 9 -19 10 -10 1 -38 11 -62 21 -24 11
-54 23 -67 27 -12 4 -20 10 -18 14 3 4 -5 7 -17 7 -12 -1 -22 4 -22 11 0 6 -4
15 -9 20 -5 5 -6 3 -2 -5 10 -17 -25 -12 -78 11 -21 9 -44 17 -52 17 -7 0 -16
5 -19 11 -4 6 -13 8 -21 5 -8 -3 -14 -1 -14 5 0 6 -7 9 -15 5 -8 -3 -15 -1
-15 5 0 6 -7 9 -15 5 -8 -3 -15 -1 -15 4 0 5 -6 7 -14 4 -8 -3 -17 0 -21 5 -3
6 -11 8 -17 5 -8 -5 -9 -1 -4 12 5 14 4 16 -4 8 -12 -12 -68 2 -81 19 -3 5 -9
8 -13 8 -25 -4 -46 0 -42 8 4 5 -3 7 -14 4 -12 -3 -20 0 -20 6 0 7 -5 9 -11 6
-6 -4 -29 0 -52 8 -80 30 -187 58 -197 52 -6 -3 -10 -1 -10 4 0 6 -7 11 -15
11 -8 0 -15 6 -15 13 0 7 -3 8 -8 2 -5 -7 -21 -7 -50 0 -24 6 -40 13 -37 17 3
3 -8 4 -24 2 -17 -2 -33 1 -36 6 -3 5 -14 7 -25 5 -12 -2 -18 0 -14 6 4 7 -3
9 -17 7 -17 -2 -23 1 -21 12 3 11 0 12 -8 4 -12 -12 -84 -3 -118 14 -9 5 -23
7 -31 4 -8 -2 -11 -1 -8 4 3 5 -9 10 -26 10 -39 2 -105 12 -132 21 -11 4 -24
7 -30 8 -13 1 -152 25 -185 32 -65 13 -135 21 -142 17 -5 -3 -15 -1 -23 6 -7
6 -35 13 -62 14 -26 2 -59 8 -73 14 -15 6 -32 6 -42 1 -11 -6 -21 -4 -31 6 -8
8 -17 11 -21 8 -8 -9 -46 -11 -46 -4 0 4 -21 8 -47 9 -60 3 -74 5 -92 16 -10
6 -12 5 -7 -2 8 -13 -16 -17 -28 -4 -4 4 -31 8 -59 9 -29 2 -74 5 -102 8 -27
2 -88 7 -135 10 -47 3 -92 6 -100 7 -8 0 -21 6 -29 12 -10 8 -13 8 -8 0 4 -7
-10 -11 -43 -11 -28 -1 -50 2 -50 6 0 3 -67 5 -150 5 -105 -1 -150 2 -150 10
0 7 -3 7 -8 1 -10 -14 -205 -14 -214 -1 -5 7 -8 7 -8 1z"/>
<path d="M10270 19916 c7 -7 13 -7 20 0 6 6 3 10 -10 10 -13 0 -16 -4 -10 -10z"/>
<path d="M11346 19658 c3 -5 10 -6 15 -3 13 9 11 12 -6 12 -8 0 -12 -4 -9 -9z"/>
<path d="M12190 19296 c0 -2 8 -10 18 -17 15 -13 16 -12 3 4 -13 16 -21 21
-21 13z"/>
<path d="M12715 19080 c-3 -5 -1 -10 4 -10 6 0 11 5 11 10 0 6 -2 10 -4 10 -3
0 -8 -4 -11 -10z"/>
<path d="M13189 18763 c-13 -16 -12 -17 4 -4 9 7 17 15 17 17 0 8 -8 3 -21
-13z"/>
<path d="M14415 17581 c-3 -5 -2 -12 3 -15 5 -3 9 1 9 9 0 17 -3 19 -12 6z"/>
<path d="M14486 17542 c-3 -5 1 -9 9 -9 8 0 12 4 9 9 -3 4 -7 8 -9 8 -2 0 -6
-4 -9 -8z"/>
<path d="M14516 17473 c-6 -14 -5 -15 5 -6 7 7 10 15 7 18 -3 3 -9 -2 -12 -12z"/>
<path d="M14993 17445 c0 -8 4 -12 9 -9 5 3 6 10 3 15 -9 13 -12 11 -12 -6z"/>
<path d="M14490 17440 c0 -5 5 -10 11 -10 5 0 7 5 4 10 -3 6 -8 10 -11 10 -2
0 -4 -4 -4 -10z"/>
<path d="M14635 17421 c-3 -5 -2 -12 3 -15 5 -3 9 1 9 9 0 17 -3 19 -12 6z"/>
<path d="M14596 17393 c-6 -14 -5 -15 5 -6 7 7 10 15 7 18 -3 3 -9 -2 -12 -12z"/>
<path d="M14653 17329 c-2 -23 3 -25 10 -4 4 8 3 16 -1 19 -4 3 -9 -4 -9 -15z"/>
<path d="M14733 17305 c0 -8 4 -12 9 -9 5 3 6 10 3 15 -9 13 -12 11 -12 -6z"/>
<path d="M14735 17261 c-3 -5 -2 -12 3 -15 5 -3 9 1 9 9 0 17 -3 19 -12 6z"/>
<path d="M14730 17220 c0 -5 5 -10 11 -10 5 0 7 5 4 10 -3 6 -8 10 -11 10 -2
0 -4 -4 -4 -10z"/>
<path d="M14696 17158 c3 -5 10 -6 15 -3 13 9 11 12 -6 12 -8 0 -12 -4 -9 -9z"/>
<path d="M14815 17140 c-3 -5 -1 -10 4 -10 6 0 11 5 11 10 0 6 -2 10 -4 10 -3
0 -8 -4 -11 -10z"/>
<path d="M14830 17105 c0 -7 30 -13 34 -7 3 4 -4 9 -15 9 -10 1 -19 0 -19 -2z"/>
<path d="M14793 17065 c0 -8 4 -12 9 -9 5 3 6 10 3 15 -9 13 -12 11 -12 -6z"/>
<path d="M14850 17059 c0 -5 5 -7 10 -4 6 3 10 8 10 11 0 2 -4 4 -10 4 -5 0
-10 -5 -10 -11z"/>
<path d="M18507 16243 c-1 0 -19 -4 -39 -7 -55 -9 -123 -24 -150 -35 -66 -25
-114 -46 -118 -51 -3 -3 -21 -14 -41 -25 -60 -33 -100 -65 -169 -136 -70 -73
-90 -95 -90 -103 0 -3 -13 -24 -29 -48 -34 -51 -93 -196 -85 -209 3 -5 1 -9
-4 -9 -5 0 -9 -6 -9 -12 -2 -21 -11 -83 -14 -83 -4 0 -5 -211 0 -220 3 -5 6
-19 8 -30 4 -44 10 -71 15 -80 4 -8 17 -51 22 -75 1 -3 14 -31 29 -64 48 -103
153 -235 236 -296 19 -14 39 -30 45 -35 6 -6 54 -32 106 -58 132 -65 211 -82
370 -81 118 1 157 6 250 36 122 39 223 100 334 203 64 60 162 212 186 290 7
22 17 46 23 53 5 6 7 12 4 12 -3 0 -1 15 4 33 26 88 30 317 6 377 -4 8 -8 26
-11 40 -2 14 -10 39 -17 55 -7 17 -13 32 -14 35 -7 30 -31 80 -37 80 -4 0 -8
5 -8 11 0 22 -83 134 -140 189 -71 68 -94 87 -139 113 -20 12 -39 26 -43 32
-4 5 -8 6 -8 1 0 -5 -8 -2 -17 6 -10 8 -27 18 -38 21 -11 3 -45 14 -76 26 -31
11 -72 23 -90 26 -19 3 -47 8 -64 12 -26 5 -184 11 -188 6z"/>
<path d="M11225 12579 c-27 -5 -60 -11 -72 -12 -13 -1 -23 -5 -23 -9 0 -5 -3
-7 -7 -6 -14 4 -113 -36 -113 -46 0 -5 -3 -6 -7 -3 -3 4 -21 -3 -40 -14 -18
-11 -33 -17 -33 -13 0 4 -8 -3 -19 -14 -10 -12 -23 -22 -28 -22 -5 0 -32 -22
-61 -48 -29 -27 -52 -46 -52 -44 0 2 -12 -11 -27 -30 -16 -18 -34 -39 -41 -47
-36 -38 -122 -198 -125 -232 -1 -10 -5 -19 -9 -19 -4 0 -7 -3 -7 -7 1 -5 0
-10 -1 -13 -4 -12 -21 -93 -26 -130 -5 -31 -6 -141 -2 -242 1 -21 5 -38 9 -38
4 0 9 -15 12 -32 8 -51 14 -74 31 -107 9 -17 17 -34 17 -38 5 -44 140 -226
212 -285 28 -24 54 -46 55 -50 2 -5 10 -8 18 -8 8 0 14 -3 14 -7 0 -5 10 -13
23 -18 12 -6 42 -21 67 -34 25 -13 53 -28 63 -33 10 -5 22 -6 27 -3 6 4 10 1
10 -5 0 -7 6 -10 14 -7 7 3 17 2 22 -3 10 -10 57 -21 97 -23 15 0 27 -3 27 -6
0 -3 48 -5 107 -3 138 3 165 5 181 15 6 5 17 5 22 2 6 -3 10 -2 10 4 0 5 8 8
17 7 9 -2 30 4 47 13 17 8 40 17 50 18 11 2 24 7 30 12 6 5 34 21 61 36 53 29
119 79 173 129 64 61 182 243 182 282 0 8 4 14 10 14 5 0 9 3 8 8 -1 4 4 27
11 51 28 100 39 231 27 346 -11 109 -57 234 -124 340 -47 74 -59 88 -106 133
-16 15 -38 37 -49 50 -12 12 -24 22 -29 22 -4 0 -17 8 -27 18 -11 9 -26 22
-33 27 -12 10 -148 79 -158 81 -3 0 -13 4 -22 7 -40 15 -55 19 -88 24 -19 3
-42 8 -50 12 -23 11 -218 11 -275 0z"/>
<path d="M18474 11970 c-3 -2 -17 -6 -31 -8 -41 -5 -129 -29 -151 -41 -11 -6
-22 -7 -26 -4 -3 3 -6 1 -6 -5 0 -7 -9 -12 -20 -12 -11 0 -20 -5 -20 -12 0 -6
-3 -9 -6 -5 -10 10 -124 -64 -171 -112 -13 -13 -23 -21 -23 -17 0 4 -6 1 -14
-6 -8 -7 -12 -16 -9 -20 2 -5 -4 -8 -13 -8 -10 0 -15 -3 -11 -6 3 -3 -6 -18
-21 -32 -41 -40 -124 -176 -137 -224 -2 -5 -4 -11 -5 -15 -1 -5 -2 -11 -1 -15
0 -5 -4 -8 -9 -8 -5 0 -9 -3 -8 -7 1 -5 -2 -20 -6 -34 -4 -14 -9 -34 -11 -45
-2 -10 -4 -19 -5 -19 -11 0 -17 -253 -7 -310 14 -83 27 -122 71 -215 49 -106
83 -153 168 -241 62 -63 216 -163 271 -175 4 -1 10 -3 15 -4 4 -1 10 -2 15 -1
4 0 7 -4 7 -11 0 -6 3 -8 6 -5 4 3 15 2 26 -4 20 -11 33 -14 103 -25 52 -9
237 -13 250 -6 5 3 18 7 30 8 44 5 75 13 123 31 9 3 22 7 27 8 36 8 149 69
203 110 29 22 158 152 177 178 56 80 120 212 126 262 1 6 6 21 11 35 10 26 19
97 21 162 0 21 5 34 10 31 6 -4 7 -1 1 8 -4 8 -10 32 -11 54 -4 50 -10 100
-13 100 -2 0 -5 13 -13 55 -7 38 -58 163 -74 181 -7 8 -13 19 -13 23 0 11 -68
104 -102 140 -16 16 -28 34 -28 39 0 6 -3 7 -6 4 -4 -3 -18 6 -33 21 -63 67
-258 168 -356 185 -16 3 -41 9 -55 12 -30 7 -240 12 -246 5z"/>
</g>
</svg>
